<svg xmlns="http://www.w3.org/2000/svg" role="img" aria-label="Book icon with transparent background" width="301" height="301" viewBox="0 0 301 301">
  <svg x="0" y="31.056" width="301" height="238.889" viewBox="0 0 378 300" preserveAspectRatio="xMidYMid meet">
      <title>Book icon</title>
      <defs>
        <mask id="book-line-cutouts" maskUnits="userSpaceOnUse" x="0" y="0" width="378" height="300">
          <rect width="378" height="300" fill="white"/>
          <path fill="black" d="M 168.75 172.5 C 168.13 172.58, 167.08 172.67, 166.25 172.5 C 165.42 172.33, 163.67 171.75, 162.5 171.25 C 161.33 170.75, 159 169.38, 157.5 168.75 C 156 168.12, 153.08 167.07, 151.25 166.5 C 149.42 165.93, 146.15 164.87, 143.75 164.5 C 141.35 164.13, 136.45 163.78, 133.25 163.75 C 130.05 163.72, 123.12 163.92, 119.75 164.25 C 116.38 164.58, 110.9 165.52, 108 166.25 C 105.1 166.98, 100.15 169.17, 98 169.75 C 95.85 170.33, 92.99 170.74, 91.88 170.62 C 90.76 170.51, 90.11 169.36, 89.62 168.88 C 89.14 168.39, 88.5 167.52, 88.25 167 C 88 166.48, 87.67 165.58, 87.75 165 C 87.83 164.42, 88.36 163.31, 88.88 162.62 C 89.39 161.94, 90.58 160.59, 91.62 159.88 C 92.67 159.16, 95.07 157.93, 96.75 157.25 C 98.43 156.57, 102.38 155.32, 104.25 154.75 C 106.12 154.18, 109.15 153.37, 110.75 153 C 112.35 152.63, 114.45 152.2, 116.25 152 C 118.05 151.8, 121.78 151.57, 124.25 151.5 C 126.72 151.43, 132.08 151.37, 134.75 151.5 C 137.42 151.63, 141.85 152.1, 144.25 152.5 C 146.65 152.9, 150.55 153.87, 152.75 154.5 C 154.95 155.13, 158.68 156.42, 160.75 157.25 C 162.82 158.08, 166.7 159.8, 168.25 160.75 C 169.8 161.7, 171.72 163.39, 172.38 164.38 C 173.03 165.36, 173.09 167.29, 173.12 168.12 C 173.16 168.96, 172.93 170.12, 172.62 170.62 C 172.32 171.12, 171.39 171.62, 170.88 171.88 C 170.36 172.12, 169.37 172.42, 168.75 172.5 Z"/>
          <path fill="black" d="M 299.75 172.5 C 299.13 172.62, 298.08 172.67, 297.25 172.5 C 296.42 172.33, 294.67 171.75, 293.5 171.25 C 292.33 170.75, 290 169.38, 288.5 168.75 C 287 168.12, 284.08 167.07, 282.25 166.5 C 280.42 165.93, 277.15 164.87, 274.75 164.5 C 272.35 164.13, 267.45 163.78, 264.25 163.75 C 261.05 163.72, 254.12 163.92, 250.75 164.25 C 247.38 164.58, 241.9 165.52, 239 166.25 C 236.1 166.98, 231.15 169.17, 229 169.75 C 226.85 170.33, 223.99 170.74, 222.88 170.62 C 221.76 170.51, 221.11 169.36, 220.62 168.88 C 220.14 168.39, 219.5 167.52, 219.25 167 C 219 166.48, 218.67 165.58, 218.75 165 C 218.83 164.42, 219.36 163.31, 219.88 162.62 C 220.39 161.94, 221.44 160.62, 222.62 159.88 C 223.81 159.12, 226.67 157.78, 228.75 157 C 230.83 156.22, 235.42 154.63, 238.25 154 C 241.08 153.37, 246.57 152.55, 250 152.25 C 253.43 151.95, 260.73 151.75, 264 151.75 C 267.27 151.75, 272.17 151.98, 274.5 152.25 C 276.83 152.52, 279.57 153.22, 281.5 153.75 C 283.43 154.28, 286.93 155.45, 289 156.25 C 291.07 157.05, 295.28 158.93, 297 159.75 C 298.72 160.57, 300.99 161.79, 301.88 162.38 C 302.76 162.96, 303.27 163.64, 303.62 164.12 C 303.98 164.61, 304.38 165.48, 304.5 166 C 304.62 166.52, 304.62 167.48, 304.5 168 C 304.38 168.52, 303.98 169.39, 303.62 169.88 C 303.27 170.36, 302.39 171.28, 301.88 171.62 C 301.36 171.97, 300.37 172.38, 299.75 172.5 Z"/>
          <path fill="black" d="M 294.75 206.5 C 292.5 205.82, 286.78 203.37, 284.25 202.5 C 281.72 201.63, 277.75 200.47, 275.75 200 C 273.75 199.53, 271.25 199.17, 269.25 199 C 267.25 198.83, 263.28 198.72, 260.75 198.75 C 258.22 198.78, 252.72 199.05, 250.25 199.25 C 247.78 199.45, 244.05 199.92, 242.25 200.25 C 240.45 200.58, 238.08 201.32, 236.75 201.75 C 235.42 202.18, 233.32 203, 232.25 203.5 C 231.18 204, 229.62 205.1, 228.75 205.5 C 227.88 205.9, 226.48 206.37, 225.75 206.5 C 225.02 206.63, 223.83 206.58, 223.25 206.5 C 222.67 206.42, 221.79 206.12, 221.38 205.88 C 220.96 205.62, 220.41 205.01, 220.12 204.62 C 219.84 204.24, 219.43 203.48, 219.25 203 C 219.07 202.52, 218.7 201.58, 218.75 201 C 218.8 200.42, 219.21 199.31, 219.62 198.62 C 220.04 197.94, 220.99 196.59, 221.88 195.88 C 222.76 195.16, 224.8 193.93, 226.25 193.25 C 227.7 192.57, 230.85 191.35, 232.75 190.75 C 234.65 190.15, 238.27 189.22, 240.5 188.75 C 242.73 188.28, 247.3 187.55, 249.5 187.25 C 251.7 186.95, 255.2 186.6, 257 186.5 C 258.8 186.4, 261.2 186.4, 263 186.5 C 264.8 186.6, 268.3 186.95, 270.5 187.25 C 272.7 187.55, 277.13 188.22, 279.5 188.75 C 281.87 189.28, 285.95 190.45, 288.25 191.25 C 290.55 192.05, 294.93 193.93, 296.75 194.75 C 298.57 195.57, 300.96 196.79, 301.88 197.38 C 302.79 197.96, 303.27 198.61, 303.62 199.12 C 303.98 199.64, 304.38 200.63, 304.5 201.25 C 304.62 201.87, 304.65 203.13, 304.5 203.75 C 304.35 204.37, 303.82 205.36, 303.38 205.88 C 302.93 206.39, 302.27 207.54, 301.12 207.62 C 299.98 207.71, 297 207.18, 294.75 206.5 Z"/>
          <path fill="black" d="M 169 208.5 C 168.48 208.62, 168 208.77, 167 208.5 C 166 208.23, 163.43 207.3, 161.5 206.5 C 159.57 205.7, 154.7 203.37, 152.5 202.5 C 150.3 201.63, 146.8 200.47, 145 200 C 143.2 199.53, 140.67 199.2, 139 199 C 137.33 198.8, 134.3 198.57, 132.5 198.5 C 130.7 198.43, 127.3 198.43, 125.5 198.5 C 123.7 198.57, 120.67 198.8, 119 199 C 117.33 199.2, 114.67 199.6, 113 200 C 111.33 200.4, 108.3 201.33, 106.5 202 C 104.7 202.67, 101.1 204.43, 99.5 205 C 97.9 205.57, 95.57 206.15, 94.5 206.25 C 93.43 206.35, 92.18 206.03, 91.5 205.75 C 90.82 205.47, 89.83 204.71, 89.38 204.12 C 88.92 203.54, 88.26 202.07, 88.12 201.38 C 87.99 200.68, 88.11 199.51, 88.38 198.88 C 88.64 198.24, 89.31 197.28, 90.12 196.62 C 90.94 195.97, 92.98 194.75, 94.5 194 C 96.02 193.25, 99.5 191.7, 101.5 191 C 103.5 190.3, 107.23 189.25, 109.5 188.75 C 111.77 188.25, 116.3 187.55, 118.5 187.25 C 120.7 186.95, 124.2 186.6, 126 186.5 C 127.8 186.4, 130.1 186.37, 132 186.5 C 133.9 186.63, 137.75 187.1, 140.25 187.5 C 142.75 187.9, 148.18 188.9, 150.75 189.5 C 153.32 190.1, 157.4 191.27, 159.5 192 C 161.6 192.73, 164.98 194.28, 166.5 195 C 168.02 195.72, 170.06 196.82, 170.88 197.38 C 171.69 197.93, 172.28 198.61, 172.62 199.12 C 172.97 199.64, 173.38 200.63, 173.5 201.25 C 173.62 201.87, 173.62 203.13, 173.5 203.75 C 173.38 204.37, 172.97 205.36, 172.62 205.88 C 172.28 206.39, 171.36 207.28, 170.88 207.62 C 170.39 207.97, 169.52 208.38, 169 208.5 Z"/>
          <path fill="black" d="M 168.75 136.5 C 168.13 136.62, 167.35 136.77, 166.25 136.5 C 165.15 136.23, 162.47 135.3, 160.5 134.5 C 158.53 133.7, 153.73 131.37, 151.5 130.5 C 149.27 129.63, 145.65 128.47, 143.75 128 C 141.85 127.53, 139.32 127.13, 137.25 127 C 135.18 126.87, 130.98 126.87, 128.25 127 C 125.52 127.13, 119.55 127.6, 116.75 128 C 113.95 128.4, 109.52 129.33, 107.25 130 C 104.98 130.67, 101.42 132.4, 99.75 133 C 98.08 133.6, 95.75 134.3, 94.75 134.5 C 93.75 134.7, 92.83 134.58, 92.25 134.5 C 91.67 134.42, 90.79 134.12, 90.38 133.88 C 89.96 133.62, 89.41 133.01, 89.12 132.62 C 88.84 132.24, 88.43 131.48, 88.25 131 C 88.07 130.52, 87.73 129.55, 87.75 129 C 87.77 128.45, 88.06 127.46, 88.38 126.88 C 88.69 126.29, 89.14 125.31, 90.12 124.62 C 91.11 123.94, 93.73 122.6, 95.75 121.75 C 97.77 120.9, 102.28 118.98, 105.25 118.25 C 108.22 117.52, 114.17 116.58, 118 116.25 C 121.83 115.92, 130.17 115.68, 134 115.75 C 137.83 115.82, 143.78 116.28, 146.75 116.75 C 149.72 117.22, 154.02 118.58, 156.25 119.25 C 158.48 119.92, 161.87 121.08, 163.5 121.75 C 165.13 122.42, 167.42 123.67, 168.5 124.25 C 169.58 124.83, 171.04 125.71, 171.62 126.12 C 172.21 126.54, 172.62 126.96, 172.88 127.38 C 173.12 127.79, 173.42 128.67, 173.5 129.25 C 173.58 129.83, 173.62 131.13, 173.5 131.75 C 173.38 132.37, 172.97 133.36, 172.62 133.88 C 172.28 134.39, 171.39 135.28, 170.88 135.62 C 170.36 135.97, 169.37 136.38, 168.75 136.5 Z"/>
          <path fill="black" d="M 300 136.5 C 299.48 136.62, 298.8 136.7, 298 136.5 C 297.2 136.3, 295.33 135.6, 294 135 C 292.67 134.4, 289.87 132.73, 288 132 C 286.13 131.27, 282.4 130.1, 280 129.5 C 277.6 128.9, 272.77 127.83, 270 127.5 C 267.23 127.17, 262.22 126.93, 259.25 127 C 256.28 127.07, 250.55 127.6, 247.75 128 C 244.95 128.4, 240.52 129.33, 238.25 130 C 235.98 130.67, 232.42 132.4, 230.75 133 C 229.08 133.6, 226.75 134.3, 225.75 134.5 C 224.75 134.7, 223.83 134.58, 223.25 134.5 C 222.67 134.42, 221.79 134.12, 221.38 133.88 C 220.96 133.62, 220.41 133.01, 220.12 132.62 C 219.84 132.24, 219.43 131.48, 219.25 131 C 219.07 130.52, 218.73 129.55, 218.75 129 C 218.77 128.45, 219.06 127.46, 219.38 126.88 C 219.69 126.29, 220.14 125.31, 221.12 124.62 C 222.11 123.94, 224.73 122.6, 226.75 121.75 C 228.77 120.9, 233.28 118.98, 236.25 118.25 C 239.22 117.52, 245.17 116.58, 249 116.25 C 252.83 115.92, 261.17 115.68, 265 115.75 C 268.83 115.82, 274.78 116.28, 277.75 116.75 C 280.72 117.22, 285.02 118.58, 287.25 119.25 C 289.48 119.92, 292.87 121.08, 294.5 121.75 C 296.13 122.42, 298.42 123.67, 299.5 124.25 C 300.58 124.83, 302.04 125.71, 302.62 126.12 C 303.21 126.54, 303.62 126.96, 303.88 127.38 C 304.12 127.79, 304.42 128.67, 304.5 129.25 C 304.58 129.83, 304.62 131.13, 304.5 131.75 C 304.38 132.37, 303.98 133.36, 303.62 133.88 C 303.27 134.39, 302.36 135.28, 301.88 135.62 C 301.39 135.97, 300.52 136.38, 300 136.5 Z"/>
        </mask>
      </defs>
      <path fill="#402D25" mask="url(#book-line-cutouts)" d="M 193.25 267.5 C 192.35 267.87, 192.65 267.87, 191.75 267.5 C 190.85 267.13, 188.4 265.85, 186.5 264.75 C 184.6 263.65, 179.83 260.52, 177.5 259.25 C 175.17 257.98, 171.2 256.12, 169 255.25 C 166.8 254.38, 163.03 253.32, 161 252.75 C 158.97 252.18, 155.58 251.37, 153.75 251 C 151.92 250.63, 149.68 250.2, 147.25 250 C 144.82 249.8, 139.33 249.57, 135.5 249.5 C 131.67 249.43, 122.77 249.33, 118.5 249.5 C 114.23 249.67, 107.23 250.25, 103.5 250.75 C 99.77 251.25, 93.43 252.62, 90.5 253.25 C 87.57 253.88, 83.37 254.93, 81.5 255.5 C 79.63 256.07, 77.8 257.13, 76.5 257.5 C 75.2 257.87, 72.98 258.22, 71.75 258.25 C 70.52 258.28, 68.43 258.07, 67.25 257.75 C 66.07 257.43, 64.03 256.56, 62.88 255.88 C 61.73 255.19, 59.54 253.44, 58.62 252.62 C 57.71 251.81, 56.48 250.47, 56 249.75 C 55.52 249.03, 55.2 252.62, 55 247.25 C 54.8 241.88, 54.57 224.27, 54.5 209.5 C 54.43 194.73, 54.43 151.27, 54.5 136.5 C 54.57 121.73, 54.8 104.12, 55 98.75 C 55.2 93.38, 55.68 96.87, 56 96.25 C 56.32 95.63, 56.96 94.64, 57.38 94.12 C 57.79 93.61, 58.21 93.06, 59.12 92.38 C 60.04 91.69, 62.43 90.12, 64.25 89 C 66.07 87.88, 70.45 85.2, 72.75 84 C 75.05 82.8, 79.13 80.93, 81.5 80 C 83.87 79.07, 88.33 77.67, 90.5 77 C 92.67 76.33, 96.05 75.4, 97.75 75 C 99.45 74.6, 101.32 74.2, 103.25 74 C 105.18 73.8, 109.38 73.57, 112.25 73.5 C 115.12 73.43, 121.58 73.37, 124.75 73.5 C 127.92 73.63, 133.17 74.1, 136 74.5 C 138.83 74.9, 143.63 75.97, 146 76.5 C 148.37 77.03, 151.98 77.97, 153.75 78.5 C 155.52 79.03, 157.52 79.77, 159.25 80.5 C 160.98 81.23, 164.48 82.87, 166.75 84 C 169.02 85.13, 173.95 87.7, 176.25 89 C 178.55 90.3, 182.17 92.52, 184 93.75 C 185.83 94.98, 188.37 97.68, 190 98.25 C 191.63 98.82, 194.55 98.7, 196.25 98 C 197.95 97.3, 200.52 94.4, 202.75 93 C 204.98 91.6, 209.77 89.03, 213 87.5 C 216.23 85.97, 223.5 82.83, 227 81.5 C 230.5 80.17, 236.22 78.3, 239.25 77.5 C 242.28 76.7, 246.85 75.9, 249.75 75.5 C 252.65 75.1, 257.9 74.63, 261 74.5 C 264.1 74.37, 269.77 74.3, 273 74.5 C 276.23 74.7, 281.95 75.4, 285.25 76 C 288.55 76.6, 294.58 78.07, 297.75 79 C 300.92 79.93, 306.17 81.8, 309 83 C 311.83 84.2, 316.82 86.82, 319 88 C 321.18 89.18, 324.16 90.99, 325.38 91.88 C 326.59 92.76, 327.54 89.01, 328.12 94.62 C 328.71 100.24, 329.47 118.62, 329.75 134 C 330.03 149.38, 330.25 194.63, 330.25 210 C 330.25 225.37, 330.02 243.68, 329.75 249.25 C 329.48 254.82, 328.77 251.1, 328.25 251.75 C 327.73 252.4, 326.62 253.51, 325.88 254.12 C 325.12 254.74, 323.57 255.89, 322.62 256.38 C 321.68 256.86, 319.87 257.5, 318.75 257.75 C 317.63 258, 316.12 258.42, 314.25 258.25 C 312.38 258.08, 307.95 257.27, 304.75 256.5 C 301.55 255.73, 293.92 253.37, 290.25 252.5 C 286.58 251.63, 280.52 250.47, 277.25 250 C 273.98 249.53, 268.68 249.17, 265.75 249 C 262.82 248.83, 257.92 248.72, 255.25 248.75 C 252.58 248.78, 248.62 248.92, 245.75 249.25 C 242.88 249.58, 237.28 250.52, 233.75 251.25 C 230.22 251.98, 222.75 253.68, 219.25 254.75 C 215.75 255.82, 210.27 257.92, 207.5 259.25 C 204.73 260.58, 200.4 263.65, 198.5 264.75 C 196.6 265.85, 194.15 267.13, 193.25 267.5 Z"/>
  </svg>
</svg>
