<svg xmlns="http://www.w3.org/2000/svg" width="301" height="301" viewBox="0 0 301 301">
  <svg x="0" y="0" width="301" height="301" viewBox="0 0 100 100" preserveAspectRatio="xMidYMid meet">
      <path fill="#402D25" fill-rule="evenodd" d="M83.838 97.687 L79.798 97.907 L78.114 97.840 L75.421 97.465 L74.074 97.115 L71.044 95.671 L69.697 94.639 L67.781 92.593 L66.976 91.582 L65.589 89.226 L65.063 87.879 L64.552 85.859 L64.488 83.165 L65.071 79.798 L65.321 77.441 L65.294 75.084 L65.125 73.737 L64.781 72.391 L64.170 71.044 L62.626 69.241 L61.279 68.227 L59.596 67.411 L58.586 67.133 L57.912 67.088 L56.664 67.340 L55.892 67.877 L55.219 68.691 L54.816 70.034 L54.699 71.380 L54.838 73.064 L55.450 76.431 L55.391 79.461 L55.083 81.145 L54.411 83.502 L53.411 85.859 L51.852 88.431 L49.947 90.909 L49.158 91.721 L47.811 92.790 L46.801 93.403 L45.791 93.771 L43.434 94.006 L41.414 94.002 L40.067 93.831 L38.721 93.500 L37.710 92.976 L37.340 92.593 L37.138 91.919 L37.203 91.246 L37.546 90.572 L39.184 88.552 L40.828 85.859 L42.148 82.828 L42.947 79.798 L43.135 77.778 L42.946 74.411 L41.397 68.350 L40.634 64.310 L40.291 61.953 L40.143 57.912 L40.281 55.556 L40.598 53.535 L41.077 51.647 L41.751 49.852 L42.761 47.888 L44.108 45.890 L47.255 42.761 L46.801 41.847 L45.748 40.404 L45.064 39.731 L44.444 39.373 L43.434 39.440 L41.077 40.634 L40.146 41.414 L38.988 43.098 L36.999 47.138 L35.928 50.168 L34.980 53.872 L34.496 57.239 L34.007 58.161 L32.997 59.016 L31.987 59.213 L26.936 59.202 L25.926 59.068 L25.253 58.783 L24.441 57.912 L24.129 56.902 L23.877 52.525 L23.569 52.168 L23.232 52.015 L20.875 51.469 L18.519 51.403 L15.825 51.999 L13.468 53.177 L12.560 53.872 L10.759 55.556 L9.764 56.697 L9.091 56.972 L8.754 56.976 L7.996 56.566 L7.654 55.892 L7.067 50.842 L6.985 46.801 L7.326 43.098 L8.167 38.384 L9.117 35.017 L10.313 31.650 L12.029 27.946 L12.532 27.273 L13.390 25.589 L15.615 22.222 L17.845 19.332 L19.865 17.063 L22.222 14.706 L25.253 12.223 L25.589 12.104 L25.926 12.224 L32.997 18.632 L33.333 18.766 L33.838 18.519 L33.757 17.845 L33.421 17.172 L29.584 10.438 L29.471 9.764 L29.630 9.401 L30.079 9.091 L35.017 6.604 L35.690 6.423 L37.374 5.614 L43.434 3.512 L47.138 2.584 L50.842 1.918 L53.199 1.623 L58.586 1.321 L62.290 1.503 L65.993 1.905 L70.034 2.634 L72.727 3.320 L76.431 4.560 L80.471 6.310 L82.155 7.257 L82.828 7.891 L83.016 8.754 L82.662 9.428 L82.155 9.741 L80.135 10.300 L78.451 11.172 L77.002 12.458 L75.741 14.478 L75.073 17.172 L74.972 19.865 L75.107 20.875 L75.758 21.379 L77.104 21.764 L78.114 22.307 L78.572 22.896 L78.670 23.906 L78.149 25.253 L77.691 25.926 L75.844 29.630 L74.747 31.338 L74.074 31.819 L73.401 32.025 L72.727 32.026 L68.608 31.313 L63.300 30.807 L59.933 30.828 L55.892 31.295 L53.872 31.773 L53.648 31.987 L53.114 32.997 L52.764 35.354 L52.841 36.027 L53.436 37.710 L54.053 38.721 L54.545 39.005 L58.923 37.921 L61.616 37.585 L65.657 37.517 L67.340 37.658 L70.707 38.270 L74.074 39.285 L78.114 41.328 L81.476 43.771 L84.425 46.801 L85.900 48.822 L87.361 51.515 L88.456 54.209 L89.101 56.566 L89.562 57.031 L90.663 57.576 L91.350 58.249 L91.801 58.923 L92.331 60.269 L92.347 61.616 L92.071 62.626 L91.700 63.300 L90.572 64.471 L89.899 64.847 L88.215 65.375 L80.808 67.091 L80.314 67.340 L80.311 67.677 L81.000 68.687 L82.648 70.707 L84.175 71.868 L85.522 72.441 L86.462 73.064 L87.433 74.411 L87.772 75.421 L87.787 77.104 L87.368 78.451 L85.963 80.808 L85.704 81.481 L85.455 82.828 L85.698 84.512 L86.494 86.195 L87.572 87.542 L88.552 88.290 L90.346 89.226 L91.388 90.236 L91.965 91.246 L92.344 92.593 L92.290 93.603 L91.989 94.613 L91.246 95.561 L90.236 96.429 L88.889 97.001 L87.879 97.249 L83.838 97.687 Z"/>
  </svg>
</svg>
