<svg xmlns="http://www.w3.org/2000/svg" fill="currentColor" color="#402E26" width="301" height="301" viewBox="0 0 301 301">
  <svg x="0" y="0" width="301" height="301" viewBox="0 0 100 100" preserveAspectRatio="xMidYMid meet">
      <path fill-rule="evenodd" d="M 30.14 4.00 L 29.79 4.35 L 28.39 4.70 L 26.65 6.44 L 26.30 7.14 L 26.30 10.62 L 27.00 12.02 L 29.09 13.41 L 32.58 13.41 L 32.92 13.76 L 34.32 13.76 L 36.41 15.85 L 37.11 18.29 L 37.45 18.64 L 37.45 19.33 L 38.15 20.38 L 38.15 21.42 L 38.50 21.77 L 38.50 24.21 L 38.15 24.91 L 36.06 27.00 L 33.27 28.39 L 32.58 28.39 L 32.23 28.74 L 30.14 28.74 L 28.74 28.05 L 25.26 25.26 L 19.33 22.12 L 18.64 22.12 L 17.24 21.42 L 16.20 21.42 L 15.85 21.08 L 13.06 21.08 L 12.71 21.42 L 12.02 21.42 L 10.62 22.12 L 8.88 23.86 L 7.48 27.00 L 7.48 28.05 L 7.14 28.39 L 7.14 30.14 L 6.79 30.48 L 6.79 35.71 L 7.14 36.06 L 7.48 39.55 L 7.83 39.89 L 8.53 42.68 L 9.58 44.77 L 10.27 45.47 L 10.62 46.52 L 11.32 47.21 L 12.02 48.61 L 13.41 50.00 L 13.41 50.35 L 17.59 54.53 L 17.94 54.53 L 19.33 55.92 L 19.68 55.92 L 24.21 59.41 L 24.91 60.80 L 25.61 63.59 L 26.65 65.33 L 26.65 66.03 L 30.14 73.00 L 31.88 75.44 L 32.58 77.18 L 33.27 77.88 L 34.67 80.32 L 35.71 81.36 L 37.11 83.80 L 38.15 84.85 L 38.85 86.24 L 45.82 94.61 L 47.21 95.30 L 48.61 95.30 L 48.95 94.95 L 49.65 94.95 L 52.44 92.17 L 52.44 91.82 L 54.18 90.08 L 54.18 89.73 L 56.62 86.94 L 58.36 84.15 L 60.45 81.71 L 60.45 81.36 L 62.55 78.58 L 62.89 77.53 L 63.59 76.83 L 63.94 75.79 L 64.64 75.09 L 64.98 74.05 L 65.68 73.35 L 66.03 72.30 L 66.73 71.61 L 70.91 62.20 L 72.65 60.45 L 76.14 58.71 L 76.83 58.02 L 79.27 56.62 L 80.67 55.23 L 81.02 55.23 L 86.59 49.65 L 86.59 49.30 L 88.68 46.86 L 89.03 45.82 L 89.73 45.12 L 90.77 43.03 L 90.77 42.33 L 91.12 41.98 L 91.12 41.29 L 92.17 38.85 L 92.17 37.45 L 92.52 37.11 L 92.52 29.44 L 92.17 29.09 L 92.17 27.70 L 91.82 27.35 L 91.82 26.30 L 90.08 23.17 L 87.64 21.42 L 86.59 21.42 L 86.24 21.08 L 83.45 21.08 L 83.11 21.42 L 82.06 21.42 L 79.97 22.47 L 79.27 22.47 L 77.18 23.52 L 76.48 24.21 L 75.44 24.56 L 70.91 28.05 L 70.56 28.05 L 69.52 29.09 L 68.12 29.79 L 65.33 29.79 L 58.71 26.30 L 56.97 24.21 L 56.97 21.42 L 57.32 21.08 L 57.67 18.98 L 58.36 17.94 L 58.71 16.20 L 60.45 14.11 L 61.15 13.76 L 62.55 13.76 L 62.89 13.41 L 66.03 13.41 L 68.47 11.32 L 68.47 10.62 L 68.82 10.27 L 68.82 7.14 L 68.12 5.74 L 67.42 5.05 L 66.03 4.35 L 65.33 4.35 L 64.98 4.00 Z M 83.80 30.14 L 85.55 31.88 L 85.55 32.92 L 85.89 33.27 L 85.89 37.11 L 85.55 37.45 L 85.20 39.20 L 84.15 40.59 L 83.80 41.64 L 82.41 43.03 L 82.41 43.38 L 78.58 47.21 L 78.23 47.21 L 76.83 48.61 L 76.48 48.61 L 73.35 51.05 L 73.00 50.70 L 73.00 47.91 L 72.65 47.56 L 72.65 44.42 L 72.30 44.08 L 72.30 42.33 L 71.95 41.98 L 71.95 41.29 L 71.61 40.94 L 71.61 39.55 L 71.26 39.20 L 71.61 37.45 L 73.00 35.71 L 73.00 35.36 L 76.83 31.88 L 80.32 30.14 L 81.71 30.14 L 82.06 29.79 L 82.76 30.14 Z M 16.89 29.79 L 17.59 30.14 L 18.98 30.14 L 22.12 31.53 L 23.17 32.58 L 23.52 32.58 L 25.61 35.02 L 25.61 37.11 L 25.26 37.45 L 23.86 42.33 L 22.12 44.08 L 20.73 44.77 L 18.98 44.77 L 18.29 44.42 L 16.20 42.33 L 16.20 41.98 L 14.80 40.24 L 14.45 38.85 L 13.76 37.80 L 13.76 36.76 L 13.41 36.41 L 13.41 33.97 L 13.76 33.62 L 13.76 32.58 L 14.45 31.18 L 15.15 30.48 L 16.55 30.14 Z"/>
  </svg>
</svg>
