<svg xmlns="http://www.w3.org/2000/svg" width="301" height="301" viewBox="0 0 301 301">
  <svg x="1.682" y="0" width="297.637" height="301" viewBox="0 0 354 358" preserveAspectRatio="xMidYMid meet">
      <path fill="#402E26" d="
        M 40 61 L 39 62 L 38 63 L 37 64 L 37 65 L 36 66 L 36 67 L 36 68 L 36 69 L 36 70 L 36 71 L 36 72 L 37 73 L 38 74 L 39 75 L 40 76 L 41 77 L 42 77 L 43 78 L 44 79 L 45 80 L 46 80 L 47 81 L 48 82 L 49 82 L 50 83 L 51 84 L 52 84 L 53 85 L 54 86 L 55 86 L 56 87 L 57 88 L 58 89 L 59 90 L 60 91 L 61 91 L 62 92 L 63 93 L 64 94 L 65 95 L 66 96 L 67 97 L 68 98 L 69 99 L 70 100 L 71 101 L 72 102 L 72 103 L 73 104 L 74 105 L 75 106 L 75 107 L 76 108 L 76 109 L 77 110 L 78 111 L 78 112 L 79 113 L 79 114 L 80 115 L 80 116 L 80 117 L 81 118 L 81 119 L 82 120 L 82 121 L 82 122 L 83 123 L 83 124 L 83 125 L 83 126 L 84 127 L 84 128 L 84 129 L 84 130 L 84 131 L 85 132 L 85 133 L 85 134 L 85 135 L 85 136 L 85 137 L 85 138 L 85 139 L 86 140 L 86 141 L 86 142 L 87 143 L 87 144 L 88 144 L 89 145 L 90 146 L 91 146 L 92 147 L 93 147 L 94 147 L 95 147 L 96 147 L 97 147 L 98 147 L 99 147 L 100 147 L 101 147 L 102 147 L 103 147 L 104 147 L 105 147 L 106 147 L 107 147 L 108 147 L 109 147 L 110 147 L 111 147 L 112 147 L 113 147 L 114 147 L 115 147 L 116 147 L 117 147 L 118 147 L 119 147 L 120 147 L 121 147 L 122 147 L 123 147 L 124 147 L 125 147 L 126 147 L 127 147 L 128 147 L 129 147 L 130 147 L 131 147 L 132 147 L 133 147 L 134 147 L 135 147 L 136 147 L 137 147 L 138 147 L 139 147 L 140 147 L 141 147 L 142 147 L 143 147 L 144 147 L 145 147 L 146 147 L 147 147 L 148 147 L 149 147 L 150 147 L 151 147 L 152 147 L 153 147 L 154 147 L 155 147 L 156 147 L 157 147 L 158 147 L 159 147 L 160 147 L 161 147 L 162 147 L 163 147 L 164 147 L 165 147 L 166 147 L 167 147 L 168 147 L 169 147 L 170 147 L 171 147 L 172 147 L 173 147 L 174 147 L 175 147 L 176 147 L 177 147 L 178 147 L 179 147 L 180 147 L 181 147 L 182 147 L 183 147 L 184 147 L 185 147 L 186 147 L 187 147 L 188 147 L 189 147 L 190 147 L 191 147 L 192 147 L 193 147 L 194 147 L 195 147 L 196 147 L 197 147 L 198 147 L 199 147 L 200 147 L 201 147 L 202 147 L 203 147 L 204 147 L 205 147 L 206 147 L 207 147 L 208 147 L 209 147 L 210 147 L 211 147 L 212 147 L 213 147 L 214 147 L 215 147 L 216 147 L 217 147 L 218 147 L 219 147 L 220 147 L 221 147 L 222 147 L 223 147 L 224 147 L 225 147 L 226 147 L 227 147 L 228 147 L 229 147 L 230 147 L 231 147 L 232 147 L 233 147 L 234 147 L 235 147 L 236 147 L 237 147 L 238 147 L 239 147 L 240 147 L 241 147 L 242 147 L 243 147 L 244 147 L 245 147 L 246 147 L 247 147 L 248 147 L 249 147 L 250 147 L 251 147 L 252 147 L 253 146 L 254 146 L 255 145 L 256 145 L 256 144 L 257 143 L 258 142 L 258 141 L 258 140 L 259 139 L 259 138 L 259 137 L 259 136 L 259 135 L 260 134 L 260 133 L 260 132 L 260 131 L 260 130 L 261 129 L 261 128 L 261 127 L 262 126 L 262 125 L 262 124 L 262 123 L 263 122 L 263 121 L 264 120 L 264 119 L 264 118 L 265 117 L 265 116 L 266 115 L 266 114 L 267 113 L 267 112 L 268 111 L 268 110 L 269 109 L 270 108 L 270 107 L 271 106 L 272 105 L 273 104 L 273 103 L 274 102 L 275 101 L 276 100 L 277 99 L 277 98 L 278 97 L 279 96 L 280 95 L 281 94 L 282 93 L 283 92 L 284 92 L 285 91 L 286 90 L 287 89 L 288 88 L 289 87 L 290 87 L 291 86 L 292 85 L 293 84 L 294 84 L 295 83 L 296 82 L 297 82 L 298 81 L 299 80 L 300 79 L 301 78 L 302 78 L 303 77 L 304 76 L 305 75 L 306 74 L 307 73 L 308 72 L 308 71 L 308 70 L 308 69 L 308 68 L 308 67 L 308 66 L 308 65 L 307 64 L 306 63 L 305 62 L 304 61 L 303 61 L 302 61 L 301 61 L 300 61 L 299 61 L 298 61 L 297 61 L 296 61 L 295 61 L 294 61 L 293 61 L 292 61 L 291 61 L 290 61 L 289 61 L 288 61 L 287 61 L 286 61 L 285 61 L 284 61 L 283 61 L 282 61 L 281 61 L 280 61 L 279 61 L 278 61 L 277 61 L 276 61 L 275 61 L 274 61 L 273 61 L 272 61 L 271 61 L 270 61 L 269 61 L 268 61 L 267 61 L 266 61 L 265 61 L 264 61 L 263 61 L 262 61 L 261 61 L 260 61 L 259 61 L 258 61 L 257 61 L 256 61 L 255 61 L 254 61 L 253 61 L 252 61 L 251 61 L 250 61 L 249 61 L 248 61 L 247 61 L 246 61 L 245 61 L 244 61 L 243 61 L 242 61 L 241 61 L 240 61 L 239 61 L 238 61 L 237 61 L 236 61 L 235 61 L 234 61 L 233 61 L 232 61 L 231 61 L 230 61 L 229 61 L 228 61 L 227 61 L 226 61 L 225 61 L 224 61 L 223 61 L 222 61 L 221 61 L 220 61 L 219 61 L 218 61 L 217 61 L 216 61 L 215 61 L 214 61 L 213 61 L 212 61 L 211 61 L 210 61 L 209 61 L 208 61 L 207 61 L 206 61 L 205 61 L 204 61 L 203 61 L 202 61 L 201 61 L 200 61 L 199 61 L 198 61 L 197 61 L 196 61 L 195 61 L 194 61 L 193 61 L 192 61 L 191 61 L 190 61 L 189 61 L 188 61 L 187 61 L 186 61 L 185 61 L 184 61 L 183 61 L 182 61 L 181 61 L 180 61 L 179 61 L 178 61 L 177 61 L 176 61 L 175 61 L 174 61 L 173 61 L 172 61 L 171 61 L 170 61 L 169 61 L 168 61 L 167 61 L 166 61 L 165 61 L 164 61 L 163 61 L 162 61 L 161 61 L 160 61 L 159 61 L 158 61 L 157 61 L 156 61 L 155 61 L 154 61 L 153 61 L 152 61 L 151 61 L 150 61 L 149 61 L 148 61 L 147 61 L 146 61 L 145 61 L 144 61 L 143 61 L 142 61 L 141 61 L 140 61 L 139 61 L 138 61 L 137 61 L 136 61 L 135 61 L 134 61 L 133 61 L 132 61 L 131 61 L 130 61 L 129 61 L 128 61 L 127 61 L 126 61 L 125 61 L 124 61 L 123 61 L 122 61 L 121 61 L 120 61 L 119 61 L 118 61 L 117 61 L 116 61 L 115 61 L 114 61 L 113 61 L 112 61 L 111 61 L 110 61 L 109 61 L 108 61 L 107 61 L 106 61 L 105 61 L 104 61 L 103 61 L 102 61 L 101 61 L 100 61 L 99 61 L 98 61 L 97 61 L 96 61 L 95 61 L 94 61 L 93 61 L 92 61 L 91 61 L 90 61 L 89 61 L 88 61 L 87 61 L 86 61 L 85 61 L 84 61 L 83 61 L 82 61 L 81 61 L 80 61 L 79 61 L 78 61 L 77 61 L 76 61 L 75 61 L 74 61 L 73 61 L 72 61 L 71 61 L 70 61 L 69 61 L 68 61 L 67 61 L 66 61 L 65 61 L 64 61 L 63 61 L 62 61 L 61 61 L 60 61 L 59 61 L 58 61 L 57 61 L 56 61 L 55 61 L 54 61 L 53 61 L 52 61 L 51 61 L 50 61 L 49 61 L 48 61 L 47 61 L 46 61 L 45 61 L 44 61 L 43 61 L 42 61 L 41 61 Z
        M 93 160 L 92 161 L 91 161 L 90 161 L 89 162 L 88 162 L 87 163 L 87 164 L 86 165 L 86 166 L 85 167 L 85 168 L 85 169 L 85 170 L 85 171 L 85 172 L 85 173 L 85 174 L 85 175 L 85 176 L 85 177 L 85 178 L 85 179 L 85 180 L 85 181 L 86 182 L 86 183 L 87 184 L 88 185 L 89 186 L 90 186 L 91 187 L 92 187 L 93 187 L 94 187 L 95 187 L 96 187 L 97 187 L 98 187 L 99 187 L 100 187 L 101 187 L 102 187 L 103 187 L 104 187 L 105 187 L 106 187 L 107 187 L 108 187 L 109 187 L 110 187 L 111 187 L 112 187 L 113 187 L 114 187 L 115 187 L 116 187 L 117 187 L 118 187 L 119 187 L 120 187 L 121 187 L 122 187 L 123 187 L 124 187 L 125 187 L 126 187 L 127 187 L 128 187 L 129 187 L 130 187 L 131 187 L 132 187 L 133 187 L 134 187 L 135 187 L 136 187 L 137 187 L 138 187 L 139 187 L 140 187 L 141 187 L 142 187 L 143 187 L 144 187 L 145 187 L 146 187 L 147 187 L 148 187 L 149 187 L 150 187 L 151 187 L 152 187 L 153 187 L 154 187 L 155 187 L 156 187 L 157 187 L 158 187 L 159 187 L 160 187 L 161 187 L 162 187 L 163 187 L 164 187 L 165 187 L 166 187 L 167 187 L 168 187 L 169 187 L 170 187 L 171 187 L 172 187 L 173 187 L 174 187 L 175 187 L 176 187 L 177 187 L 178 187 L 179 187 L 180 187 L 181 187 L 182 187 L 183 187 L 184 187 L 185 187 L 186 187 L 187 187 L 188 187 L 189 187 L 190 187 L 191 187 L 192 187 L 193 187 L 194 187 L 195 187 L 196 187 L 197 187 L 198 187 L 199 187 L 200 187 L 201 187 L 202 187 L 203 187 L 204 187 L 205 187 L 206 187 L 207 187 L 208 187 L 209 187 L 210 187 L 211 187 L 212 187 L 213 187 L 214 187 L 215 187 L 216 187 L 217 187 L 218 187 L 219 187 L 220 187 L 221 187 L 222 187 L 223 187 L 224 187 L 225 187 L 226 187 L 227 187 L 228 187 L 229 187 L 230 187 L 231 187 L 232 187 L 233 187 L 234 187 L 235 187 L 236 187 L 237 187 L 238 187 L 239 187 L 240 187 L 241 187 L 242 187 L 243 187 L 244 187 L 245 187 L 246 187 L 247 187 L 248 187 L 249 187 L 250 187 L 251 187 L 252 187 L 253 186 L 254 186 L 255 185 L 256 185 L 257 184 L 257 183 L 258 182 L 258 181 L 258 180 L 258 179 L 258 178 L 258 177 L 258 176 L 258 175 L 258 174 L 258 173 L 258 172 L 258 171 L 258 170 L 258 169 L 258 168 L 258 167 L 258 166 L 257 165 L 257 164 L 256 163 L 255 162 L 254 161 L 253 161 L 252 161 L 251 161 L 250 160 L 249 160 L 248 160 L 247 160 L 246 160 L 245 160 L 244 160 L 243 160 L 242 160 L 241 160 L 240 160 L 239 160 L 238 160 L 237 160 L 236 160 L 235 160 L 234 160 L 233 160 L 232 160 L 231 160 L 230 160 L 229 160 L 228 160 L 227 160 L 226 160 L 225 160 L 224 160 L 223 160 L 222 160 L 221 160 L 220 160 L 219 160 L 218 160 L 217 160 L 216 160 L 215 160 L 214 160 L 213 160 L 212 160 L 211 160 L 210 160 L 209 160 L 208 160 L 207 160 L 206 160 L 205 160 L 204 160 L 203 160 L 202 160 L 201 160 L 200 160 L 199 160 L 198 160 L 197 160 L 196 160 L 195 160 L 194 160 L 193 160 L 192 160 L 191 160 L 190 160 L 189 160 L 188 160 L 187 160 L 186 160 L 185 160 L 184 160 L 183 160 L 182 160 L 181 160 L 180 160 L 179 160 L 178 160 L 177 160 L 176 160 L 175 160 L 174 160 L 173 160 L 172 160 L 171 160 L 170 160 L 169 160 L 168 160 L 167 160 L 166 160 L 165 160 L 164 160 L 163 160 L 162 160 L 161 160 L 160 160 L 159 160 L 158 160 L 157 160 L 156 160 L 155 160 L 154 160 L 153 160 L 152 160 L 151 160 L 150 160 L 149 160 L 148 160 L 147 160 L 146 160 L 145 160 L 144 160 L 143 160 L 142 160 L 141 160 L 140 160 L 139 160 L 138 160 L 137 160 L 136 160 L 135 160 L 134 160 L 133 160 L 132 160 L 131 160 L 130 160 L 129 160 L 128 160 L 127 160 L 126 160 L 125 160 L 124 160 L 123 160 L 122 160 L 121 160 L 120 160 L 119 160 L 118 160 L 117 160 L 116 160 L 115 160 L 114 160 L 113 160 L 112 160 L 111 160 L 110 160 L 109 160 L 108 160 L 107 160 L 106 160 L 105 160 L 104 160 L 103 160 L 102 160 L 101 160 L 100 160 L 99 160 L 98 160 L 97 160 L 96 160 L 95 160 L 94 160 Z
        M 90 201 L 89 202 L 88 202 L 87 203 L 87 204 L 86 205 L 85 206 L 85 207 L 85 208 L 85 209 L 85 210 L 85 211 L 85 212 L 85 213 L 85 214 L 85 215 L 85 216 L 85 217 L 85 218 L 85 219 L 85 220 L 85 221 L 85 222 L 85 223 L 85 224 L 85 225 L 85 226 L 85 227 L 85 228 L 85 229 L 85 230 L 85 231 L 85 232 L 85 233 L 85 234 L 85 235 L 85 236 L 85 237 L 85 238 L 85 239 L 85 240 L 85 241 L 85 242 L 85 243 L 85 244 L 85 245 L 85 246 L 85 247 L 85 248 L 85 249 L 85 250 L 85 251 L 85 252 L 85 253 L 85 254 L 85 255 L 85 256 L 85 257 L 85 258 L 85 259 L 85 260 L 85 261 L 85 262 L 85 263 L 85 264 L 85 265 L 85 266 L 85 267 L 85 268 L 85 269 L 85 270 L 85 271 L 85 272 L 85 273 L 85 274 L 85 275 L 85 276 L 85 277 L 85 278 L 85 279 L 85 280 L 85 281 L 85 282 L 85 283 L 85 284 L 85 285 L 85 286 L 85 287 L 85 288 L 85 289 L 85 290 L 85 291 L 85 292 L 85 293 L 85 294 L 85 295 L 85 296 L 85 297 L 85 298 L 85 299 L 85 300 L 85 301 L 85 302 L 85 303 L 85 304 L 85 305 L 85 306 L 85 307 L 85 308 L 85 309 L 85 310 L 85 311 L 85 312 L 85 313 L 85 314 L 86 315 L 86 316 L 87 317 L 87 318 L 88 318 L 89 319 L 90 320 L 91 320 L 92 320 L 93 320 L 94 320 L 95 320 L 96 320 L 97 320 L 98 320 L 99 320 L 100 320 L 101 320 L 102 320 L 103 320 L 104 320 L 105 320 L 106 320 L 107 320 L 108 320 L 109 320 L 110 320 L 111 320 L 112 320 L 113 320 L 114 320 L 115 320 L 116 320 L 117 320 L 116 320 L 115 319 L 114 318 L 113 317 L 113 316 L 112 315 L 112 314 L 112 313 L 112 312 L 112 311 L 112 310 L 112 309 L 112 308 L 112 307 L 112 306 L 112 305 L 112 304 L 112 303 L 112 302 L 112 301 L 112 300 L 112 299 L 112 298 L 112 297 L 112 296 L 112 295 L 112 294 L 112 293 L 112 292 L 112 291 L 112 290 L 112 289 L 112 288 L 112 287 L 112 286 L 112 285 L 112 284 L 112 283 L 112 282 L 112 281 L 112 280 L 112 279 L 112 278 L 112 277 L 112 276 L 112 275 L 112 274 L 112 273 L 112 272 L 112 271 L 112 270 L 112 269 L 112 268 L 112 267 L 112 266 L 112 265 L 112 264 L 112 263 L 112 262 L 112 261 L 112 260 L 112 259 L 112 258 L 112 257 L 112 256 L 112 255 L 112 254 L 112 253 L 112 252 L 112 251 L 112 250 L 112 249 L 112 248 L 112 247 L 112 246 L 112 245 L 112 244 L 112 243 L 113 242 L 113 241 L 114 240 L 114 239 L 115 238 L 116 237 L 117 237 L 118 236 L 119 235 L 120 235 L 121 234 L 122 234 L 123 234 L 124 234 L 125 234 L 126 234 L 127 234 L 128 234 L 129 234 L 130 235 L 131 235 L 132 236 L 133 237 L 134 238 L 135 239 L 136 240 L 137 241 L 137 242 L 138 243 L 138 244 L 138 245 L 138 246 L 138 247 L 138 248 L 138 249 L 138 250 L 138 251 L 138 252 L 138 253 L 138 254 L 138 255 L 138 256 L 138 257 L 138 258 L 138 259 L 138 260 L 138 261 L 138 262 L 138 263 L 138 264 L 138 265 L 138 266 L 138 267 L 138 268 L 138 269 L 138 270 L 138 271 L 138 272 L 138 273 L 138 274 L 138 275 L 138 276 L 138 277 L 138 278 L 138 279 L 138 280 L 138 281 L 138 282 L 138 283 L 138 284 L 138 285 L 138 286 L 138 287 L 138 288 L 138 289 L 138 290 L 138 291 L 138 292 L 138 293 L 138 294 L 138 295 L 138 296 L 138 297 L 138 298 L 138 299 L 138 300 L 138 301 L 138 302 L 138 303 L 138 304 L 138 305 L 138 306 L 138 307 L 138 308 L 138 309 L 138 310 L 138 311 L 138 312 L 138 313 L 138 314 L 138 315 L 137 316 L 137 317 L 136 318 L 135 319 L 134 319 L 133 320 L 134 320 L 135 320 L 136 320 L 137 320 L 138 320 L 139 320 L 140 320 L 141 320 L 142 320 L 143 320 L 144 320 L 145 320 L 146 320 L 147 320 L 148 320 L 149 320 L 150 320 L 151 320 L 152 320 L 153 320 L 154 320 L 155 320 L 156 320 L 157 320 L 158 320 L 159 320 L 160 320 L 161 320 L 162 320 L 163 320 L 164 320 L 163 319 L 162 319 L 161 318 L 160 317 L 159 316 L 159 315 L 159 314 L 158 313 L 158 312 L 158 311 L 158 310 L 158 309 L 158 308 L 158 307 L 158 306 L 158 305 L 158 304 L 158 303 L 158 302 L 158 301 L 158 300 L 158 299 L 158 298 L 158 297 L 158 296 L 158 295 L 158 294 L 158 293 L 158 292 L 158 291 L 158 290 L 158 289 L 158 288 L 158 287 L 158 286 L 158 285 L 158 284 L 158 283 L 158 282 L 158 281 L 158 280 L 158 279 L 158 278 L 158 277 L 158 276 L 158 275 L 158 274 L 158 273 L 158 272 L 158 271 L 158 270 L 158 269 L 158 268 L 158 267 L 158 266 L 158 265 L 158 264 L 158 263 L 158 262 L 158 261 L 158 260 L 158 259 L 158 258 L 158 257 L 158 256 L 158 255 L 158 254 L 158 253 L 158 252 L 158 251 L 158 250 L 158 249 L 158 248 L 158 247 L 158 246 L 158 245 L 159 244 L 159 243 L 159 242 L 160 241 L 160 240 L 161 239 L 162 238 L 163 237 L 164 236 L 165 236 L 166 235 L 167 235 L 168 234 L 169 234 L 170 234 L 171 234 L 172 234 L 173 234 L 174 234 L 175 234 L 176 235 L 177 235 L 178 236 L 179 236 L 180 237 L 181 238 L 182 239 L 183 240 L 183 241 L 184 242 L 184 243 L 185 244 L 185 245 L 185 246 L 185 247 L 185 248 L 185 249 L 185 250 L 185 251 L 185 252 L 185 253 L 185 254 L 185 255 L 185 256 L 185 257 L 185 258 L 185 259 L 185 260 L 185 261 L 185 262 L 185 263 L 185 264 L 185 265 L 185 266 L 185 267 L 185 268 L 185 269 L 185 270 L 185 271 L 185 272 L 185 273 L 185 274 L 185 275 L 185 276 L 185 277 L 185 278 L 185 279 L 185 280 L 185 281 L 185 282 L 185 283 L 185 284 L 185 285 L 185 286 L 185 287 L 185 288 L 185 289 L 185 290 L 185 291 L 185 292 L 185 293 L 185 294 L 185 295 L 185 296 L 185 297 L 185 298 L 185 299 L 185 300 L 185 301 L 185 302 L 185 303 L 185 304 L 185 305 L 185 306 L 185 307 L 185 308 L 185 309 L 185 310 L 185 311 L 185 312 L 185 313 L 185 314 L 184 315 L 184 316 L 183 317 L 182 318 L 181 319 L 180 320 L 181 320 L 182 320 L 183 320 L 184 320 L 185 320 L 186 320 L 187 320 L 188 320 L 189 320 L 190 320 L 191 320 L 192 320 L 193 320 L 194 320 L 195 320 L 196 320 L 197 320 L 198 320 L 199 320 L 200 320 L 201 320 L 202 320 L 203 320 L 204 320 L 205 320 L 206 320 L 207 320 L 208 320 L 209 320 L 210 320 L 209 319 L 208 319 L 207 318 L 207 317 L 206 316 L 206 315 L 205 314 L 205 313 L 205 312 L 205 311 L 205 310 L 205 309 L 205 308 L 205 307 L 205 306 L 205 305 L 205 304 L 205 303 L 205 302 L 205 301 L 205 300 L 205 299 L 205 298 L 205 297 L 205 296 L 205 295 L 205 294 L 205 293 L 205 292 L 205 291 L 205 290 L 205 289 L 205 288 L 205 287 L 205 286 L 205 285 L 205 284 L 205 283 L 205 282 L 205 281 L 205 280 L 205 279 L 205 278 L 205 277 L 205 276 L 205 275 L 205 274 L 205 273 L 205 272 L 205 271 L 205 270 L 205 269 L 205 268 L 205 267 L 205 266 L 205 265 L 205 264 L 205 263 L 205 262 L 205 261 L 205 260 L 205 259 L 205 258 L 205 257 L 205 256 L 205 255 L 205 254 L 205 253 L 205 252 L 205 251 L 205 250 L 205 249 L 205 248 L 205 247 L 205 246 L 205 245 L 205 244 L 206 243 L 206 242 L 207 241 L 207 240 L 208 239 L 209 238 L 210 237 L 211 236 L 212 235 L 213 235 L 214 235 L 215 234 L 216 234 L 217 234 L 218 234 L 219 234 L 220 234 L 221 234 L 222 234 L 223 235 L 224 235 L 225 236 L 226 236 L 227 237 L 228 238 L 229 239 L 230 240 L 230 241 L 231 242 L 231 243 L 231 244 L 231 245 L 232 246 L 232 247 L 232 248 L 232 249 L 232 250 L 232 251 L 232 252 L 232 253 L 232 254 L 232 255 L 232 256 L 232 257 L 232 258 L 232 259 L 232 260 L 232 261 L 232 262 L 232 263 L 232 264 L 232 265 L 232 266 L 232 267 L 232 268 L 232 269 L 232 270 L 232 271 L 232 272 L 232 273 L 232 274 L 232 275 L 232 276 L 232 277 L 232 278 L 232 279 L 232 280 L 232 281 L 232 282 L 232 283 L 232 284 L 232 285 L 232 286 L 232 287 L 232 288 L 232 289 L 232 290 L 232 291 L 232 292 L 232 293 L 232 294 L 232 295 L 232 296 L 232 297 L 232 298 L 232 299 L 232 300 L 232 301 L 232 302 L 232 303 L 232 304 L 232 305 L 232 306 L 232 307 L 232 308 L 232 309 L 232 310 L 232 311 L 232 312 L 232 313 L 231 314 L 231 315 L 231 316 L 230 317 L 229 318 L 228 319 L 227 320 L 226 320 L 227 320 L 228 320 L 229 320 L 230 320 L 231 320 L 232 320 L 233 320 L 234 320 L 235 320 L 236 320 L 237 320 L 238 320 L 239 320 L 240 320 L 241 320 L 242 320 L 243 320 L 244 320 L 245 320 L 246 320 L 247 320 L 248 320 L 249 320 L 250 320 L 251 320 L 252 320 L 253 320 L 254 319 L 255 319 L 256 318 L 257 317 L 257 316 L 258 315 L 258 314 L 258 313 L 258 312 L 258 311 L 258 310 L 258 309 L 258 308 L 258 307 L 258 306 L 258 305 L 258 304 L 258 303 L 258 302 L 258 301 L 258 300 L 258 299 L 258 298 L 258 297 L 258 296 L 258 295 L 258 294 L 258 293 L 258 292 L 258 291 L 258 290 L 258 289 L 258 288 L 258 287 L 258 286 L 258 285 L 258 284 L 258 283 L 258 282 L 258 281 L 258 280 L 258 279 L 258 278 L 258 277 L 258 276 L 258 275 L 258 274 L 258 273 L 258 272 L 258 271 L 258 270 L 258 269 L 258 268 L 258 267 L 258 266 L 258 265 L 258 264 L 258 263 L 258 262 L 258 261 L 258 260 L 258 259 L 258 258 L 258 257 L 258 256 L 258 255 L 258 254 L 258 253 L 258 252 L 258 251 L 258 250 L 258 249 L 258 248 L 258 247 L 258 246 L 258 245 L 258 244 L 258 243 L 258 242 L 258 241 L 258 240 L 258 239 L 258 238 L 258 237 L 258 236 L 258 235 L 258 234 L 258 233 L 258 232 L 258 231 L 258 230 L 258 229 L 258 228 L 258 227 L 258 226 L 258 225 L 258 224 L 258 223 L 258 222 L 258 221 L 258 220 L 258 219 L 258 218 L 258 217 L 258 216 L 258 215 L 258 214 L 258 213 L 258 212 L 258 211 L 258 210 L 258 209 L 258 208 L 258 207 L 258 206 L 257 205 L 257 204 L 256 203 L 255 202 L 254 202 L 253 201 L 252 201 L 251 201 L 250 201 L 249 201 L 248 201 L 247 201 L 246 201 L 245 201 L 244 201 L 243 201 L 242 201 L 241 201 L 240 201 L 239 201 L 238 201 L 237 201 L 236 201 L 235 201 L 234 201 L 233 201 L 232 201 L 231 201 L 230 201 L 229 201 L 228 201 L 227 201 L 226 201 L 225 201 L 224 201 L 223 201 L 222 201 L 221 201 L 220 201 L 219 201 L 218 201 L 217 201 L 216 201 L 215 201 L 214 201 L 213 201 L 212 201 L 211 201 L 210 201 L 209 201 L 208 201 L 207 201 L 206 201 L 205 201 L 204 201 L 203 201 L 202 201 L 201 201 L 200 201 L 199 201 L 198 201 L 197 201 L 196 201 L 195 201 L 194 201 L 193 201 L 192 201 L 191 201 L 190 201 L 189 201 L 188 201 L 187 201 L 186 201 L 185 201 L 184 201 L 183 201 L 182 201 L 181 201 L 180 201 L 179 201 L 178 201 L 177 201 L 176 201 L 175 201 L 174 201 L 173 201 L 172 201 L 171 201 L 170 201 L 169 201 L 168 201 L 167 201 L 166 201 L 165 201 L 164 201 L 163 201 L 162 201 L 161 201 L 160 201 L 159 201 L 158 201 L 157 201 L 156 201 L 155 201 L 154 201 L 153 201 L 152 201 L 151 201 L 150 201 L 149 201 L 148 201 L 147 201 L 146 201 L 145 201 L 144 201 L 143 201 L 142 201 L 141 201 L 140 201 L 139 201 L 138 201 L 137 201 L 136 201 L 135 201 L 134 201 L 133 201 L 132 201 L 131 201 L 130 201 L 129 201 L 128 201 L 127 201 L 126 201 L 125 201 L 124 201 L 123 201 L 122 201 L 121 201 L 120 201 L 119 201 L 118 201 L 117 201 L 116 201 L 115 201 L 114 201 L 113 201 L 112 201 L 111 201 L 110 201 L 109 201 L 108 201 L 107 201 L 106 201 L 105 201 L 104 201 L 103 201 L 102 201 L 101 201 L 100 201 L 99 201 L 98 201 L 97 201 L 96 201 L 95 201 L 94 201 L 93 201 L 92 201 L 91 201 Z
      "/>
  </svg>
</svg>
