<svg xmlns="http://www.w3.org/2000/svg" width="100" height="100" viewBox="0 0 100 100" fill="none" aria-hidden="true">
  <g
    transform="translate(8 10) scale(.92 .74)"
    stroke="#B8A898"
    stroke-width="2.7"
    stroke-linecap="round"
    stroke-linejoin="round"
    vector-effect="non-scaling-stroke"
  >
    <path d="M21 32 C42 33 66 24 91 3"/>
    <path d="M9 41 C32 46 59 38 82 21"/>
    <path d="M0 49 C27 57 58 50 79 35"/>
    <path d="M16 55 C38 61 61 56 76 46"/>
    <path d="M25 61 C43 65 61 63 73 56"/>
    <path d="M31 67 C44 70 58 70 68 67"/>
    <path d="M35 73 C48 75 60 79 69 83"/>
    <path d="M39 79 C51 83 61 89 68 95"/>
    <path d="M43 85 C53 90 61 96 65 102"/>
    <path d="M47 91 C55 96 61 102 63 108"/>
  </g>
</svg>
