<svg xmlns="http://www.w3.org/2000/svg" viewBox="0 0 300 150" fill="none" aria-hidden="true">
  <!-- Fan of curved feather lines radiating from bottom-center -->
  <path d="M150 148 Q 90 100 10  35" stroke="currentColor" stroke-width="1.1" stroke-linecap="round"/>
  <path d="M150 148 Q 100 95  30  18" stroke="currentColor" stroke-width="1.1" stroke-linecap="round"/>
  <path d="M150 148 Q 112 90  58   8" stroke="currentColor" stroke-width="1.1" stroke-linecap="round"/>
  <path d="M150 148 Q 124 84  88   3" stroke="currentColor" stroke-width="1.1" stroke-linecap="round"/>
  <path d="M150 148 Q 136 78 118   1" stroke="currentColor" stroke-width="1.1" stroke-linecap="round"/>
  <path d="M150 148 Q 150 72 150   0" stroke="currentColor" stroke-width="1.1" stroke-linecap="round"/>
  <path d="M150 148 Q 164 78 182   1" stroke="currentColor" stroke-width="1.1" stroke-linecap="round"/>
  <path d="M150 148 Q 176 84 212   3" stroke="currentColor" stroke-width="1.1" stroke-linecap="round"/>
  <path d="M150 148 Q 188 90 242   8" stroke="currentColor" stroke-width="1.1" stroke-linecap="round"/>
  <path d="M150 148 Q 200 95 270  18" stroke="currentColor" stroke-width="1.1" stroke-linecap="round"/>
  <path d="M150 148 Q 210 100 290 35" stroke="currentColor" stroke-width="1.1" stroke-linecap="round"/>
</svg>
